<svg width="55" height="58" viewBox="0 0 55 58" fill="none" xmlns="http://www.w3.org/2000/svg">
<path d="M34 25.3999H41.2" stroke="#EF5FA2" stroke-width="3" stroke-miterlimit="10" stroke-linecap="round" stroke-linejoin="round"/>
<path d="M34 32.6001H39.4" stroke="#EF5FA2" stroke-width="3" stroke-miterlimit="10" stroke-linecap="round" stroke-linejoin="round"/>
<path d="M34 47H39.4" stroke="#EF5FA2" stroke-width="3" stroke-miterlimit="10" stroke-linecap="round" stroke-linejoin="round"/>
<path d="M34 11H41.2" stroke="#EF5FA2" stroke-width="3" stroke-miterlimit="10" stroke-linecap="round" stroke-linejoin="round"/>
<path d="M34 18.2H39.4" stroke="#EF5FA2" stroke-width="3" stroke-miterlimit="10" stroke-linecap="round" stroke-linejoin="round"/>
<path d="M34 39.8H41.2" stroke="#EF5FA2" stroke-width="3" stroke-miterlimit="10" stroke-linecap="round" stroke-linejoin="round"/>
<path d="M18.9998 56H8.1998V41.6L2.7998 36.2V21.8H24.3998V36.2L18.9998 41.6V56Z" fill="#2A338F" stroke="#2A338F" stroke-width="4" stroke-miterlimit="10" stroke-linecap="round" stroke-linejoin="round"/>
<path d="M13.5994 16.4C17.5759 16.4 20.7994 13.1764 20.7994 9.2C20.7994 5.22355 17.5759 2 13.5994 2C9.62296 2 6.39941 5.22355 6.39941 9.2C6.39941 13.1764 9.62296 16.4 13.5994 16.4Z" fill="#2A338F" stroke="#2A338F" stroke-width="4" stroke-miterlimit="10" stroke-linecap="round" stroke-linejoin="round"/>
<path d="M53.1994 2H33.3994V56H53.1994V2Z" stroke="#EF5FA2" stroke-width="3" stroke-miterlimit="10" stroke-linecap="round" stroke-linejoin="round"/>
</svg>
