<svg width="58" height="64" viewBox="0 0 58 64" fill="none" xmlns="http://www.w3.org/2000/svg">
<path d="M8.83114 4.41408H7.72754V0H8.83114C10.0483 0.00406885 11.0343 0.989983 11.038 2.2072C11.0411 2.79248 10.8061 3.35399 10.3873 3.76306C9.97793 4.18215 9.41674 4.41721 8.83114 4.41408Z" fill="#EF5FA2"/>
<path d="M16.5557 2.20722C16.5526 1.62162 16.7876 1.06012 17.2067 0.650728C17.6158 0.231949 18.177 -0.00279183 18.7626 2.50626e-05H19.8662V4.4141H18.7626C17.5454 4.41035 16.5595 3.42412 16.5557 2.20722Z" fill="#EF5FA2"/>
<path d="M27.5454 5.06478C27.7314 3.79655 27.3614 2.50985 26.5301 1.53364C25.7082 0.563692 24.5023 0.00312988 23.2309 0H22.0725V4.41407H23.2309L20.1082 24.938C19.8059 27.0832 17.9711 28.6776 15.8049 28.6788H11.7883C9.62216 28.6776 7.7871 27.0832 7.48476 24.938L4.36207 4.41407H5.52076V0H4.36207C3.09071 0.00312988 1.88477 0.563692 1.06286 1.53364C0.230625 2.5133 -0.139953 3.80437 0.0478396 5.07573L3.17021 25.5999C3.77553 29.8941 7.45189 33.086 11.7883 33.0816H15.8049C20.1414 33.086 23.8174 29.8941 24.4228 25.5999L27.5454 5.06478Z" fill="#2A338F"/>
<path d="M11.7888 33.0818C11.222 33.0824 10.6558 33.0273 10.1006 32.9162C10.1006 32.9049 10.1119 32.9049 10.1119 32.8943L14.8345 33.0818H11.7888Z" fill="black"/>
<path d="M43.8655 52.0499C42.3597 54.6246 40.3964 56.9022 38.0724 58.7717C35.4439 61.1275 32.2117 62.705 28.7369 63.3269C26.4386 63.7441 24.11 63.9688 21.7742 63.9998C15.7385 63.9998 11.3795 62.2674 8.75385 58.8358C3.85433 52.4139 6.63523 41.7764 9.26151 35.0015C10.0903 35.1924 10.9379 35.2885 11.7883 35.2882H13.8737C11.2584 41.6885 8.5551 51.3323 12.2624 56.1654C14.602 59.2221 19.2584 59.8621 24.0918 59.4978C24.5332 59.4646 24.9632 59.4205 25.4045 59.3764C25.6252 59.3541 25.8574 59.3322 26.0781 59.2991C28.0158 59.1582 29.9119 58.664 31.6721 57.8405C33.4123 56.833 35.0198 55.6124 36.4577 54.207C37.8464 53.0155 39.0236 51.5977 39.9394 50.0136C42.0139 46.1623 42.1901 42.3557 40.4139 40.6894C39.4111 39.8734 38.1228 39.496 36.8386 39.6418C35.5109 39.7414 34.2859 40.3939 33.4621 41.4396C33.0314 41.9736 32.3826 42.2844 31.6965 42.2844C31.0108 42.2844 30.3616 41.9736 29.9306 41.4396C29.1072 40.3939 27.8818 39.7414 26.5548 39.6418C26.3889 39.6302 26.2233 39.619 26.069 39.619C24.9438 39.5914 23.8461 39.9717 22.9792 40.6894C21.203 42.3557 21.3792 46.1623 23.4205 49.9585C24.9062 52.408 26.8871 54.5207 29.2361 56.1601C29.2468 56.1711 29.258 56.182 29.2687 56.182C27.5535 56.8455 25.7576 57.2797 23.9285 57.4728C22.1375 55.9241 20.639 54.0665 19.5037 51.9886C16.4577 46.3063 16.6233 40.5902 19.967 37.4785C20.9811 36.5645 22.1995 35.9057 23.5197 35.5586C24.6371 35.2544 25.7992 35.1536 26.9519 35.2609C28.6687 35.3961 30.3128 36.0118 31.6965 37.0371C35.2408 34.4631 40.0849 34.6459 43.4261 37.4785C46.7675 40.5955 46.9328 46.3116 43.8655 52.0499Z" fill="#2A338F"/>
<path d="M54.6351 58.836C52.0088 62.2676 47.6501 64 41.6142 64C39.5109 63.9847 37.412 63.8082 35.3359 63.4704C36.3053 62.8851 37.2276 62.2247 38.0943 61.4949L38.6683 61.0429C39.2971 60.5571 39.8927 60.0607 40.4445 59.564C44.8583 59.7521 48.9854 58.9794 51.1259 56.1656C54.6683 51.5199 52.3728 42.5161 49.8792 36.1603C51.3268 35.8755 52.7077 35.3215 53.9509 34.5271C56.6101 41.2692 59.6554 52.2595 54.6351 58.836Z" fill="#2A338F"/>
<path d="M47.4513 14.345C41.9668 14.345 37.5205 18.791 37.5205 24.2758C37.5205 29.7609 41.9668 34.2072 47.4513 34.2072C47.861 34.2094 48.2701 34.1838 48.6764 34.1302C50.3443 33.9274 51.9321 33.3005 53.2889 32.309C56.7681 29.7797 58.2235 25.298 56.8948 21.2072C55.5649 17.1155 51.753 14.3459 47.4513 14.345ZM47.4513 29.7932C44.4044 29.7932 41.9343 27.3227 41.9343 24.2758C41.9343 21.2288 44.4044 18.759 47.4513 18.759C50.4986 18.759 52.969 21.2288 52.969 24.2758C52.969 27.3227 50.4986 29.7932 47.4513 29.7932Z" fill="#EF5FA2"/>
<path d="M50.7622 24.2756C50.7622 26.1037 49.2802 27.586 47.4518 27.586C45.6236 27.586 44.1416 26.1037 44.1416 24.2756C44.1416 22.4474 45.6236 20.9651 47.4518 20.9651C49.2802 20.9651 50.7622 22.4474 50.7622 24.2756Z" fill="#EF5FA2"/>
</svg>
