<svg width="72" height="66" viewBox="0 0 72 66" fill="none" xmlns="http://www.w3.org/2000/svg">
<path d="M3.60004 10.7998H1.19997C0.537335 10.7998 0 10.2626 0 9.59987C0 8.9371 0.537335 8.3999 1.19997 8.3999H3.60004C4.26282 8.3999 4.80001 8.93724 4.80001 9.59987C4.80001 10.2625 4.26282 10.7998 3.60004 10.7998Z" fill="#2A338F"/>
<path d="M8.4006 6.00002C8.4006 5.33724 7.86326 4.80005 7.20063 4.80005H4.80055C4.13778 4.80005 3.60059 5.33738 3.60059 6.00002V13.2001C3.60059 13.8629 4.13792 14.4001 4.80055 14.4001H7.20063C7.8634 14.4001 8.4006 13.8627 8.4006 13.2001H9.60056V6.00002H8.4006Z" fill="#EE5FA2"/>
<path d="M22.8 9.59985H18V30.0002H22.8V9.59985Z" fill="#2A338F"/>
<path d="M54.0002 9.59985H49.2002V30.0002H54.0002V9.59985Z" fill="#2A338F"/>
<path d="M22.7987 51.6005V63.6006H15.5986V27.6001C15.6006 26.9382 16.1367 26.402 16.7986 26.4001H22.7987V51.6005Z" fill="#2A338F"/>
<path d="M49.2012 51.6005V63.6006H56.4013V27.6001C56.3993 26.9382 55.8632 26.402 55.2013 26.4001H49.2012V51.6005Z" fill="#2A338F"/>
<path d="M70.8002 10.8001H68.4002C67.7374 10.8001 67.2002 10.2627 67.2002 9.60011C67.2002 8.93748 67.7374 8.40015 68.4002 8.40015H70.8002C71.463 8.40015 72.0002 8.93748 72.0002 9.60011C72.0002 10.2627 71.463 10.8001 70.8002 10.8001Z" fill="#2A338F"/>
<path d="M33.6016 32.4001V51.6005V56.4005V66.0007H38.4017V56.4005V51.6005V32.4001H33.6016Z" fill="#2A338F"/>
<path d="M15.6003 61.2007H22.8004C24.1259 61.2007 25.2004 62.2752 25.2004 63.6008C25.2004 64.9263 24.1259 66.0008 22.8004 66.0008H15.6003C14.2747 66.0008 13.2002 64.9263 13.2002 63.6008C13.2003 62.2752 14.2749 61.2007 15.6003 61.2007Z" fill="#EE5FA2"/>
<path d="M64.8013 14.4001H67.2014C67.8642 14.4001 68.4013 13.8627 68.4013 13.2001V6.00002C68.4013 5.33724 67.8642 4.80005 67.2014 4.80005H64.8013C64.1385 4.80005 63.6013 5.33738 63.6013 6.00002H62.4014V13.2001H63.6013C63.6013 13.8629 64.1385 14.4001 64.8013 14.4001Z" fill="#EE5FA2"/>
<path d="M56.4 66.0008H49.1999C47.8743 66.0008 46.7998 64.9263 46.7998 63.6008C46.7998 62.2752 47.8743 61.2007 49.1999 61.2007H56.4C57.7255 61.2007 58.8 62.2752 58.8 63.6008C58.7999 64.9263 57.7254 66.0008 56.4 66.0008Z" fill="#EE5FA2"/>
<path d="M59.9404 10.8H12.0598C11.6171 10.8216 11.1985 10.5977 10.9707 10.2175C10.7429 9.83722 10.7429 9.36261 10.9707 8.98235C11.1985 8.6021 11.6171 8.37822 12.0598 8.39988H59.9404C60.3831 8.37822 60.8017 8.6021 61.0296 8.98235C61.2574 9.36261 61.2574 9.83722 61.0296 10.2175C60.8017 10.5977 60.3831 10.8216 59.9404 10.8Z" fill="#2A338F"/>
<path d="M22.7995 46.8005H49.1998C50.5253 46.8005 51.5999 47.8751 51.5999 49.2006C51.5999 50.5262 50.5253 51.6007 49.1998 51.6007H22.7995C21.4739 51.6007 20.3994 50.5262 20.3994 49.2006C20.3996 47.8751 21.4741 46.8005 22.7995 46.8005Z" fill="#2A338F"/>
<path d="M29.9997 0H41.9998C43.3253 0 44.3999 1.07453 44.3999 2.40008V39.6005C44.3999 40.926 43.3253 42.0006 41.9998 42.0006H29.9997C28.6741 42.0006 27.5996 40.926 27.5996 39.6005V2.40008C27.5998 1.07453 28.6743 0 29.9997 0Z" fill="#2A338F"/>
<path d="M9.60036 2.3999H12.0004C12.6632 2.3999 13.2004 2.93724 13.2004 3.59987V15.6C13.2004 16.2627 12.6632 16.7999 12.0004 16.7999H9.60036C8.93758 16.7999 8.40039 16.2627 8.40039 15.6V3.59987C8.40025 2.93724 8.93758 2.3999 9.60036 2.3999Z" fill="#EE5FA2"/>
<path d="M62.4018 16.8001H60.0017C59.339 16.8001 58.8018 16.2629 58.8018 15.6001V3.59987C58.8018 2.9371 59.339 2.3999 60.0017 2.3999H62.4018C63.0646 2.3999 63.6018 2.9371 63.6018 3.59987V15.6C63.6019 16.2629 63.0646 16.8001 62.4018 16.8001Z" fill="#EE5FA2"/>
</svg>
