<svg width="65" height="52" viewBox="0 0 65 52" fill="none" xmlns="http://www.w3.org/2000/svg">
<path d="M35.8638 22.797H42.7113C48.4521 19.6429 50.6033 13.9506 51.3571 11.0248C51.613 10.0219 50.9491 9.0259 49.9254 8.88065C41.0237 7.60106 36.5416 10.0841 33.3945 15.078C33.6159 15.6037 33.8304 16.1362 34.0379 16.6758C34.515 17.9416 34.8263 19.4425 34.9785 20.8673C39.2876 18.4188 43.0088 15.3271 44.3437 14.4417C43.3684 15.5068 40.6779 18.7991 35.8638 22.797Z" fill="#EF5FA2"/>
<path d="M0.0288321 2.96725C0.796581 7.0965 3.85374 18.1286 15.0726 22.7973H28.5116C24.2648 15.0576 16.5873 11.2534 13.1566 9.15075C15.7711 9.628 23.8567 12.4016 31.2299 20.086C31.797 20.6808 32.9521 21.9328 32.9867 21.9189C32.1497 9.81475 20.931 0 9.06883 0C6.65499 0 4.07508 0.31125 1.32218 0.97525C0.429929 1.18967 -0.137237 2.06808 0.0288321 2.96725Z" fill="#EF5FA2"/>
<path d="M64.8656 26.6017C64.8656 25.6472 64.091 24.8726 63.1364 24.8726H9.82975C8.87525 24.8726 8.10059 25.6472 8.10059 26.6017V26.8092C8.10059 40.7255 19.3817 51.9996 33.2911 51.9996H39.6682C53.5845 51.9996 64.8587 40.7186 64.8587 26.8092V26.6017H64.8656Z" fill="#2A338F"/>
</svg>
