<svg width="58" height="54" viewBox="0 0 58 54" fill="none" xmlns="http://www.w3.org/2000/svg">
<path d="M36.6233 18.5285C34.9641 17.3183 29.112 13.7739 23.5466 18.9409C23.3509 19.1226 23.1427 19.3283 22.9404 19.5224L23.4823 19.6595C23.5944 19.6746 28.1835 20.4557 30.4095 22.5217C30.7835 22.8699 30.7835 23.4336 30.4095 23.781C30.2215 23.9556 29.976 24.0419 29.7305 24.0419C29.4859 24.0419 29.2403 23.9555 29.0524 23.781C27.5553 22.3909 24.2207 21.5875 23.0622 21.3952L21.4624 20.9935C20.3317 22.1592 19.1204 23.496 17.8496 24.9903L18.4232 25.106C19.7418 25.408 22.9355 26.2692 24.6552 27.8649C25.0292 28.2132 25.0292 28.7769 24.6552 29.1242C24.4671 29.2988 24.2217 29.3851 23.9761 29.3851C23.7316 29.3851 23.486 29.2987 23.2981 29.1242C22.173 28.0795 19.8186 27.2593 17.9897 26.8408L16.5501 26.5505C15.5239 27.808 14.4661 29.1634 13.3862 30.6105L14.0412 30.7948C15.2689 31.1492 17.5255 31.932 18.9007 33.2082C19.2747 33.5564 19.2747 34.1201 18.9007 34.4674C18.7128 34.642 18.4672 34.7283 18.2217 34.7283C17.9771 34.7283 17.7315 34.6419 17.5436 34.4674C16.7639 33.7433 15.2438 33.0069 13.4773 32.4975L12.2525 32.1511C11.1343 33.6971 9.99969 35.341 8.85658 37.0732L9.61038 37.3787C10.695 37.799 12.313 38.6691 13.1464 39.4421C13.5204 39.7904 13.5204 40.354 13.1464 40.7013C12.9585 40.8759 12.7129 40.9622 12.4673 40.9622C12.2228 40.9622 11.9772 40.8758 11.7893 40.7013C11.1832 40.1385 9.78391 39.3753 8.85647 39.0164L7.85047 38.6086C5.23798 42.6775 2.60728 47.2104 0.0916632 52.1601C-0.080967 52.4994 -0.00521654 52.9037 0.28059 53.1691C0.464684 53.34 0.710255 53.43 0.959647 53.43C1.09777 53.43 1.23781 53.4024 1.36818 53.3454C18.5679 45.8086 31.1268 37.1533 37.1429 31.566C42.7073 26.3991 38.8903 20.9658 37.5869 19.4233C37.3062 19.0904 36.9819 18.7895 36.6233 18.5285Z" fill="#2A338F"/>
<path d="M55.9833 9.33695C55.8586 9.22121 55.7262 9.11257 55.5834 9.00748C56.4004 7.18804 55.9785 5.02942 54.4382 3.59915C52.8222 2.09853 50.4092 1.75664 48.4182 2.63203C48.1717 2.19298 47.8582 1.79223 47.4861 1.44669C45.4078 -0.482229 42.0271 -0.482229 39.9498 1.44669C38.4814 2.81017 38.0451 4.82905 38.7088 6.58253C37.721 6.77842 36.8109 7.23083 36.0876 7.90229C34.0093 9.83215 34.0104 12.9713 36.0876 14.9003C36.8184 15.5788 37.7353 16.0277 38.7154 16.2219L42.1987 12.9874V10.6845C42.1987 10.192 42.6284 9.79395 43.1577 9.79395C43.6881 9.79395 44.1167 10.192 44.1167 10.6845V11.2064L46.0349 9.42524V7.12208C46.0349 6.6296 46.4646 6.23157 46.9939 6.23157C47.5243 6.23157 47.9529 6.6296 47.9529 7.12208V8.90322H48.9119C49.4423 8.90322 49.871 9.30126 49.871 9.79374C49.871 10.2853 49.4423 10.6843 48.9119 10.6843H47.3919L45.4737 12.4654H46.9938C47.5242 12.4654 47.9528 12.8634 47.9528 13.3559C47.9528 13.8475 47.5242 14.2464 46.9938 14.2464H43.5556L40.081 17.472C40.29 18.3849 40.7619 19.2407 41.4946 19.9211C42.5333 20.8864 43.898 21.3683 45.2628 21.3683C46.6275 21.3683 47.9923 20.8856 49.0308 19.9211C49.754 19.2496 50.2412 18.4045 50.4521 17.4872C52.3415 18.1026 54.5147 17.6982 55.983 16.3348C58.0605 14.4059 58.0614 11.2667 55.9833 9.33695Z" fill="#EF5FA2"/>
</svg>
