<svg width="64" height="64" viewBox="0 0 64 64" fill="none" xmlns="http://www.w3.org/2000/svg">
<path d="M22.7824 48.2785C24.1884 50.2949 26.2057 51.8058 28.5366 52.5875C29.0078 52.7799 29.5406 52.7511 29.9879 52.5085C30.3552 52.3097 30.6121 51.9539 30.6852 51.5428C30.7558 51.1452 30.8119 50.7039 30.8532 50.2447C30.798 49.5215 30.798 48.7959 30.8532 48.0733C30.7637 46.9108 30.4183 45.7831 29.8418 44.7702C28.0839 41.7987 24.1501 40.3887 22.3227 39.8743C21.8281 41.6008 21.0613 45.3726 22.7824 48.2785Z" fill="#EF5FA2"/>
<path d="M33.314 51.5438C33.3876 51.9549 33.644 52.3097 34.0108 52.5085C34.4586 52.7511 34.9914 52.7799 35.4626 52.5875C37.793 51.8058 39.8103 50.2949 41.2168 48.2785C42.9379 45.3726 42.1755 41.6008 41.6741 39.8743C39.8451 40.3887 35.9128 41.8011 34.155 44.7702C33.5784 45.7831 33.233 46.9108 33.1436 48.0733C33.1987 48.7959 33.1987 49.5215 33.1436 50.2447C33.1868 50.7039 33.243 51.1452 33.314 51.5438Z" fill="#EF5FA2"/>
<path d="M22.7866 35.9098C23.4089 36.9222 24.2404 37.7899 25.2254 38.4549C26.3864 38.9221 27.4942 39.5125 28.5295 40.2158L28.5991 40.2446C29.0583 40.4096 29.5662 40.3679 29.9922 40.1303C30.3589 39.9305 30.6154 39.5757 30.6894 39.1646C30.758 38.7795 30.8127 38.353 30.853 37.9072C30.7938 37.1592 30.7938 36.4078 30.853 35.6593C30.7575 34.5107 30.4136 33.3965 29.8445 32.3945C29.2064 31.3607 28.354 30.4761 27.3451 29.8002C26.3725 29.1217 25.3208 28.5641 24.214 28.1382C23.8448 27.9911 23.4949 27.8663 23.1738 27.759C22.8607 27.6551 22.5739 27.5681 22.3259 27.498C21.8289 29.2321 21.063 33.0048 22.7866 35.9098Z" fill="#EF5FA2"/>
<path d="M31.807 43.6057C31.881 43.73 31.9327 43.8607 31.9998 43.9874C32.0674 43.8607 32.1141 43.73 32.1931 43.6057C32.4839 43.1251 32.8159 42.6714 33.1862 42.2489C33.0877 42.2047 32.9819 42.1818 32.8855 42.1291C32.555 41.9353 32.2558 41.6913 31.9998 41.4055C31.7439 41.6913 31.4452 41.9353 31.1142 42.1291C31.0182 42.1828 30.9119 42.2047 30.8135 42.2489C31.1842 42.6714 31.5162 43.1256 31.807 43.6067V43.6057Z" fill="#EF5FA2"/>
<path d="M29.8422 20.034C28.0808 17.063 24.1485 15.6569 22.322 15.144C21.825 16.8696 21.0651 20.6389 22.7862 23.5518C23.4085 24.5567 24.2335 25.4205 25.2091 26.088C26.3751 26.5517 27.4869 27.1431 28.5231 27.8514L28.5962 27.8812C29.0524 28.0511 29.5599 28.0134 29.9863 27.7783C30.3551 27.577 30.613 27.2187 30.6866 26.8047C30.7551 26.4195 30.8098 25.9921 30.8501 25.5473C30.7909 24.7988 30.7909 24.0468 30.8501 23.2983C30.7551 22.1498 30.4107 21.036 29.8422 20.034Z" fill="#EF5FA2"/>
<path d="M28.0954 15.1953C29.6033 16.1137 30.8761 17.3716 31.811 18.8696C31.884 18.9933 31.9342 19.1211 32.0003 19.2458C32.0654 19.1221 32.1146 18.9943 32.1892 18.8721C33.1236 17.3736 34.3959 16.1147 35.9043 15.1967C35.9182 15.0104 35.9445 14.8265 35.9445 14.6376C35.9445 12.8683 34.4734 8.73027 32.0003 3.53711C29.5263 8.73375 28.0566 12.8683 28.0566 14.6376C28.0566 14.8136 28.0805 15.0079 28.0954 15.1953Z" fill="#EF5FA2"/>
<path d="M31.9997 31.6147C32.0648 31.4905 32.114 31.3632 32.1886 31.24C32.4788 30.7609 32.8108 30.3081 33.1816 29.8881C33.0867 29.8444 32.9848 29.823 32.8923 29.7738C32.5584 29.578 32.2572 29.331 31.9997 29.0422C31.7423 29.3305 31.4411 29.577 31.1071 29.7713C31.0147 29.823 30.9128 29.8444 30.8184 29.8856C31.1891 30.3061 31.5216 30.7589 31.8114 31.239C31.8854 31.3632 31.9346 31.4905 31.9997 31.6147Z" fill="#EF5FA2"/>
<path d="M41.6814 27.5039C41.0408 27.6853 40.4101 27.899 39.7913 28.145C38.6865 28.57 37.6363 29.1261 36.6647 29.802C35.6533 30.4799 34.7984 31.3661 34.1583 32.4009C33.5892 33.4038 33.2453 34.5186 33.1504 35.6671C33.21 36.4156 33.21 37.1671 33.1504 37.9156C33.1911 38.3609 33.2463 38.7883 33.3149 39.1725C33.3899 39.582 33.6464 39.9359 34.0117 40.1347C34.462 40.3792 34.9977 40.41 35.4724 40.2182C36.5071 39.5129 37.6149 38.921 38.7764 38.4523C39.76 37.7879 40.59 36.9216 41.2117 35.9107C42.9458 32.9908 42.1809 29.2275 41.6814 27.5039Z" fill="#EF5FA2"/>
<path d="M43.1842 49.4447C41.5203 51.9038 39.1009 53.7547 36.2918 54.7179C36.1099 54.7835 35.9241 54.8371 35.7352 54.8779L33.2666 59.3703C38.9394 59.1113 44.389 57.0861 48.854 53.5772L43.6996 48.4229C43.5495 48.7737 43.3771 49.1152 43.1842 49.4447Z" fill="#2A338F"/>
<path d="M31.9998 53.7734C31.7423 54.0612 31.4416 54.3072 31.1086 54.5015C30.9685 54.5676 30.8243 54.6253 30.6777 54.674L31.9814 56.9602L33.2572 54.6467C33.1429 54.5945 33.0102 54.5657 32.8958 54.5015C32.5609 54.3072 32.2587 54.0617 31.9998 53.7734Z" fill="#EF5FA2"/>
<path d="M35.0733 4.7439C36.5206 7.66725 37.5628 10.7735 38.1716 13.9782C39.4698 13.3952 40.8266 12.9529 42.2192 12.6596C42.7545 12.5587 43.2863 12.8495 43.4905 13.3544C43.5964 13.6173 46.0595 19.8512 43.1794 24.7154C43.0994 24.8525 42.999 24.9818 42.9095 25.1155C43.1724 25.2347 43.3802 25.4484 43.4915 25.7143C43.5964 25.9773 46.0595 32.2216 43.1794 37.0753C43.0969 37.2149 42.9955 37.3461 42.9051 37.4823C43.171 37.6006 43.3812 37.8158 43.4925 38.0847C43.5109 38.1314 43.6068 38.3724 43.7281 38.7522L53.6969 48.72C59.7598 40.8898 61.1221 30.3961 57.2594 21.2776C53.3967 12.1591 44.911 5.8368 35.0684 4.7439H35.0733Z" fill="#2A338F"/>
<path d="M31.9999 0C14.327 0 0 14.327 0 31.9999C0 49.6732 14.327 63.9998 31.9999 63.9998C49.6732 63.9998 63.9998 49.6732 63.9998 31.9999C63.9799 14.3355 49.6648 0.020377 31.9999 0ZM54.6775 51.1876C54.6676 51.2 54.6517 51.2035 54.6412 51.2149C54.6308 51.2263 54.6263 51.2432 54.6139 51.2562C54.5443 51.3158 54.4673 51.3665 54.3853 51.4068C54.3435 51.4386 54.3003 51.4679 54.2551 51.4937C54.1129 51.5564 53.9598 51.5892 53.8048 51.5906C53.6651 51.5896 53.527 51.5628 53.3977 51.5106C53.358 51.4902 53.3197 51.4674 53.2834 51.441C53.2089 51.4087 53.1388 51.368 53.0732 51.3198C53.0608 51.3083 53.0548 51.2939 53.0434 51.2825C53.0319 51.2711 53.015 51.2676 53.0036 51.2562L44.5327 42.7863C44.6152 43.8285 44.5765 44.8772 44.4184 45.9109L51.3819 52.8744C51.3918 52.8843 51.3953 52.8992 51.4058 52.9097C51.4162 52.9201 51.4286 52.9246 51.4391 52.936C51.4734 52.9867 51.5037 53.0404 51.529 53.0961C51.5732 53.1587 51.6115 53.2253 51.6433 53.2949C51.6647 53.3644 51.6781 53.436 51.6846 53.5086C51.7 53.5796 51.7089 53.6517 51.7109 53.7248C51.704 53.7968 51.69 53.8689 51.6687 53.9385C51.6567 54.009 51.6379 54.0791 51.6125 54.1462C51.5762 54.2148 51.5335 54.2794 51.4848 54.3396C51.4555 54.3922 51.4217 54.4429 51.3839 54.4901C51.374 54.5006 51.36 54.5041 51.3496 54.513C51.3397 54.5224 51.3337 54.5384 51.3223 54.5473C39.5478 64.6856 21.948 64.0296 10.9608 53.0434C-0.025844 42.0572 -0.683376 24.4574 9.45394 12.6825C9.46388 12.6695 9.47879 12.6661 9.48824 12.6546C9.49718 12.6432 9.50166 12.6298 9.51209 12.6193C9.55831 12.5831 9.60752 12.5503 9.65921 12.5224C9.72034 12.4707 9.78743 12.4265 9.8585 12.3897C9.92063 12.3659 9.98573 12.3485 10.0513 12.337C10.1259 12.3142 10.2024 12.2993 10.28 12.2928C10.3485 12.2943 10.4166 12.3023 10.4832 12.3167C10.5608 12.3231 10.6373 12.3375 10.7119 12.3599C10.7799 12.3917 10.8446 12.43 10.9052 12.4742C10.9623 12.5006 11.0175 12.5314 11.0697 12.5667C11.0811 12.5771 11.0846 12.591 11.096 12.601C11.1075 12.6114 11.1214 12.6149 11.1313 12.6253L19.5679 21.0619C19.4158 19.9685 19.3945 18.8607 19.5053 17.7623L12.7625 11.0195C12.7496 11.0071 12.7461 10.9907 12.7346 10.9782C12.7232 10.9658 12.7088 10.9623 12.6974 10.9499C12.6636 10.8987 12.6338 10.8446 12.6089 10.7884C12.5672 10.7278 12.5309 10.6626 12.5016 10.5941C12.4807 10.524 12.4668 10.4514 12.4608 10.3784C12.4434 10.3063 12.4335 10.2327 12.432 10.1587C12.4394 10.0866 12.4533 10.0151 12.4732 9.94498C12.4861 9.87391 12.506 9.80433 12.5324 9.73723C12.5686 9.66915 12.6114 9.60503 12.6596 9.5449C12.6884 9.4937 12.7212 9.444 12.7575 9.39778C12.7689 9.38635 12.7853 9.38287 12.7968 9.37144C12.8082 9.36001 12.8137 9.34411 12.8276 9.33367C17.654 5.21354 23.688 2.77277 30.0218 2.37815L30.0745 2.26384C30.4144 1.50541 31.1679 1.01736 31.9994 1.01736C32.8309 1.01736 33.5843 1.50541 33.9248 2.26384L33.968 2.35876C45.1575 3.09582 54.9782 10.0732 59.3568 20.3969C63.7353 30.7206 61.9253 42.6302 54.6775 51.1876Z" fill="#EF5FA2"/>
<path d="M37.7546 16.7529C37.6492 16.8518 37.5255 16.9299 37.3903 16.9816C36.0787 17.7226 34.9684 18.7732 34.1568 20.0421C33.5878 21.0435 33.2443 22.1563 33.1504 23.3039C33.2095 24.0524 33.2095 24.8048 33.1504 25.5533C33.1911 25.9991 33.2463 26.4251 33.3149 26.8102C33.389 27.2237 33.6464 27.5816 34.0152 27.7829C34.4635 28.0249 34.9968 28.0527 35.4679 27.8584H35.4793C36.5156 27.1502 37.6274 26.5593 38.7938 26.0961C39.769 25.4291 40.5945 24.5658 41.2162 23.5614C42.9408 20.6469 42.1789 16.8777 41.6814 15.1521C40.3152 15.5323 38.9976 16.0696 37.7546 16.7529Z" fill="#EF5FA2"/>
<path d="M27.7089 54.7177C24.8993 53.7545 22.4799 51.9032 20.816 49.4435C17.9408 44.5883 20.4025 38.3485 20.5073 38.0846C20.6192 37.8162 20.8294 37.6015 21.0948 37.4832C21.0034 37.345 20.9005 37.2123 20.8185 37.0717C17.9408 32.2215 20.4035 25.9771 20.5088 25.7142C20.5546 25.6064 20.6177 25.5065 20.6952 25.418L10.4232 15.145C4.08098 23.2128 2.78579 34.1503 7.06795 43.4765C11.3506 52.8023 20.4909 58.9482 30.7431 59.3955L28.1418 54.8444C27.9952 54.8106 27.8505 54.7684 27.7089 54.7177Z" fill="#2A338F"/>
<path d="M20.5097 13.3589C20.7139 12.8539 21.2452 12.5632 21.7805 12.6641C23.1731 12.9558 24.5299 13.3967 25.8286 13.9781C26.4334 10.7795 27.4717 7.67767 28.9145 4.75879C23.943 5.30897 19.2229 7.23137 15.2822 10.3108L19.9804 15.0089C20.1245 14.4493 20.3009 13.8981 20.5097 13.3589Z" fill="#2A338F"/>
</svg>
