<svg width="63" height="64" viewBox="0 0 63 64" fill="none" xmlns="http://www.w3.org/2000/svg">
<path d="M14.0867 43.4751C13.847 42.9854 13.679 42.4634 13.5882 41.9258C11.9383 44.0459 11.4393 46.8433 12.2542 49.4033H29.9329C30.6815 47.0547 30.3274 44.4932 28.9695 42.4355C28.8758 42.7939 28.7464 43.1426 28.5843 43.4761C28.2649 44.1104 27.804 44.6631 27.2371 45.0908C26.5643 45.582 25.7859 45.9087 24.9647 46.0439C24.8655 46.0454 24.7669 46.0327 24.6712 46.0059C24.3255 45.9009 24.0472 45.6431 23.9158 45.3062V45.2939C23.9012 45.2559 22.9075 42.6665 21.3358 42.6665C19.7635 42.6665 18.7698 45.2559 18.7532 45.2939V45.3062C18.6214 45.6431 18.3431 45.9009 17.9974 46.0059C17.9022 46.0327 17.8035 46.0454 17.7044 46.0439C16.8836 45.9092 16.1058 45.583 15.4339 45.0918C14.8665 44.6636 14.4056 44.1104 14.0867 43.4751Z" fill="#EF5FA2"/>
<path d="M9.93272 49.4033C9.73106 48.5956 9.62755 47.7661 9.62413 46.933C9.6422 43.6762 11.152 40.6069 13.7213 38.6044C12.8077 37.5649 11.6344 36.7871 10.3214 36.351C10.2618 36.6157 10.2091 36.8886 10.1788 37.165C10.5592 34.9008 11.5909 32.7968 13.1471 31.1093C13.5856 30.6708 13.5856 29.9599 13.1466 29.5214C12.7081 29.0829 11.9972 29.0829 11.5587 29.5219C11.087 30.0165 10.6559 30.5478 10.2696 31.1118C9.9005 30.517 9.36095 30.0478 8.7213 29.7646C6.50011 28.7988 3.93565 30.5078 3.6505 30.7055C3.21788 31.0053 3.05187 31.5654 3.25108 32.0527L3.47569 32.623C3.9171 33.9575 4.59435 35.2016 5.4752 36.2968C2.84435 37.1313 0.845322 39.2861 0.210556 41.9721C-0.424209 44.6577 0.398545 47.4794 2.37755 49.4033H9.93272ZM10.1066 38.1752C10.1085 37.8784 10.1271 37.5815 10.1617 37.2861C10.1261 37.581 10.108 37.8784 10.1066 38.1752ZM7.82872 31.8261C8.42784 32.2455 8.80431 32.914 8.85265 33.6435C8.60118 34.2216 8.39366 34.8168 8.23058 35.4257C8.21056 35.4257 8.19591 35.4086 8.17442 35.4052C6.99083 35.2211 6.24425 33.5204 5.69542 32.1288C6.34044 31.7558 7.10509 31.6469 7.82872 31.8261Z" fill="#EF5FA2"/>
<path d="M17.9737 37.0527C17.0723 37.1958 16.3355 37.8482 16.085 38.7256C15.5943 39.9273 15.5982 41.2744 16.0953 42.4736C16.2574 42.7988 16.4928 43.082 16.7823 43.3013C16.8341 43.3325 16.9688 43.4067 17.127 43.4888C17.8399 42.1592 19.2437 40.4209 21.3355 40.4209C23.4268 40.4209 24.8297 42.1582 25.5426 43.4839C25.713 43.3941 25.8634 43.3101 25.9332 43.2661C26.2032 43.0518 26.4224 42.7803 26.5753 42.4712C26.9532 41.6201 27.0528 40.6709 26.8604 39.7598C26.8604 39.7461 26.8604 39.7349 26.8541 39.7217C26.7921 39.3818 26.7027 39.0474 26.5865 38.7222C26.335 37.8482 25.6016 37.1978 24.7037 37.0527C23.9498 37.0215 23.2027 37.2041 22.5479 37.5791C22.9493 34.0156 21.4693 30.499 18.6407 28.2949C18.1446 27.9229 17.4405 28.0234 17.0684 28.5195C16.6964 29.0156 16.797 29.7192 17.293 30.0913C19.5948 31.9399 20.7276 34.8818 20.2598 37.7969C20.2598 37.7598 20.2711 37.7275 20.2764 37.6768C19.5919 37.2354 18.7872 37.0171 17.9737 37.0527Z" fill="#EF5FA2"/>
<path d="M44.9136 8.98242C43.6733 8.98242 42.668 9.98779 42.668 11.228V14.5967H58.3872V11.228C58.3872 9.98779 57.3818 8.98242 56.1416 8.98242H53.896V2.24561H55.001C55.6211 2.24561 56.1235 1.74268 56.1235 1.12305C56.1235 0.50293 55.6211 0 55.001 0H45.896C45.2759 0 44.7734 0.50293 44.7734 1.12305C44.7734 1.74268 45.2759 2.24561 45.896 2.24561H47.1592V8.98242H44.9136ZM51.6504 2.24561V4.49121H49.4048V2.24561H51.6504ZM49.4048 6.73682H51.6504V8.98242H49.4048V6.73682Z" fill="#2A338F"/>
<path d="M38.6265 43.5649C38.6265 41.7046 37.1182 40.1963 35.2578 40.1963C35.0278 40.1982 34.7979 40.2217 34.5718 40.2661C34.2432 40.3296 33.9028 40.2427 33.6445 40.0293C33.3867 39.8159 33.2368 39.4985 33.2368 39.1636C33.2544 38.0186 32.8135 36.9141 32.0122 36.0957C31.2104 35.2773 30.1157 34.8135 28.9702 34.8071C28.187 34.811 27.4204 35.0317 26.7549 35.4448C27.666 36.0459 28.3506 36.9331 28.7007 37.9668C28.8276 38.3271 28.9302 38.6958 29.0073 39.0703C31.2495 41.0718 32.541 43.9277 32.5635 46.9331C32.5596 47.7661 32.4561 48.5957 32.2544 49.4033H40.0122C40.2798 49.0054 40.4229 48.5361 40.4229 48.0562C40.4165 47.1191 39.8877 46.2647 39.0518 45.8408C38.584 45.5981 38.3481 45.062 38.4849 44.5532C38.5767 44.2314 38.624 43.8989 38.6265 43.5649Z" fill="#EF5FA2"/>
<path d="M61.7563 41.5439H40.4824C40.7373 42.1875 40.8691 42.873 40.8721 43.5649C40.8721 43.6392 40.8599 43.7144 40.8564 43.7896H61.7563C62.0493 43.7925 62.3306 43.6758 62.5356 43.4663C62.7559 43.2588 62.8799 42.9692 62.8789 42.6665C62.8789 42.0464 62.3765 41.5439 61.7563 41.5439Z" fill="#2A338F"/>
<path d="M61.7559 37.0527H39.2998C38.6797 37.0527 38.1768 37.5552 38.1768 38.1753C38.1768 38.7954 38.6797 39.2983 39.2998 39.2983H61.7559C62.376 39.2983 62.8784 38.7954 62.8784 38.1753C62.8784 37.5552 62.376 37.0527 61.7559 37.0527Z" fill="#2A338F"/>
<path d="M59.5107 46.0352H42.208C42.7236 47.0835 42.8105 48.292 42.4497 49.4033H43.4409C44.4834 49.4009 45.4678 49.8813 46.1079 50.7036C46.7412 51.5039 46.9673 52.5527 46.7207 53.5435C45.707 57.5786 43.3047 61.1284 39.9355 63.5698C40.4277 63.8467 40.9814 63.9946 41.5459 64H59.5107C61.3711 64 62.8789 62.4917 62.8789 60.6313V49.4033C62.8789 47.543 61.3711 46.0352 59.5107 46.0352Z" fill="#2A338F"/>
<path d="M59.5103 16.8423H41.5454C39.6851 16.8423 38.1768 18.3501 38.1768 20.2104V31.4385C38.1768 33.2988 39.6851 34.8071 41.5454 34.8071H59.5103C61.3706 34.8071 62.8784 33.2988 62.8784 31.4385V20.2104C62.8784 18.3501 61.3706 16.8423 59.5103 16.8423ZM42.668 31.4385C42.668 32.0586 42.1655 32.5615 41.5454 32.5615C40.9253 32.5615 40.4224 32.0586 40.4224 31.4385V25.8247C40.4224 25.2046 40.9253 24.7017 41.5454 24.7017C42.1655 24.7017 42.668 25.2046 42.668 25.8247V31.4385ZM42.668 21.3335C42.668 21.9536 42.1655 22.4561 41.5454 22.4561C40.9253 22.4561 40.4224 21.9536 40.4224 21.3335V20.2104C40.4224 19.5903 40.9253 19.0879 41.5454 19.0879C42.1655 19.0879 42.668 19.5903 42.668 20.2104V21.3335Z" fill="#2A338F"/>
<path d="M44.5397 53.0044C44.6202 52.6841 44.546 52.3442 44.339 52.0869C44.1236 51.8101 43.7916 51.648 43.4405 51.6489H1.47472C1.12365 51.648 0.792104 51.8101 0.576283 52.0869C0.369252 52.3442 0.295033 52.6841 0.3756 53.0044C1.63146 58.0171 5.26916 62.0933 10.1066 63.9102C10.2521 63.9702 10.4078 64.0005 10.5651 64H34.3483C34.5021 64 34.6549 63.9702 34.7975 63.9111C39.6207 62.0698 43.2526 58.0044 44.5397 53.0044ZM5.61535 56.1401H4.49279C3.87267 56.1401 3.36974 55.6377 3.36974 55.0176C3.36974 54.3975 3.87267 53.8945 4.49279 53.8945H5.61535C6.23546 53.8945 6.73839 54.3975 6.73839 55.0176C6.73839 55.6377 6.23546 56.1401 5.61535 56.1401ZM10.1066 56.1401C9.48644 56.1401 8.984 55.6377 8.984 55.0176C8.984 54.3975 9.48644 53.8945 10.1066 53.8945H40.4225C41.0426 53.8945 41.5455 54.3975 41.5455 55.0176C41.5455 55.6377 41.0426 56.1401 40.4225 56.1401H10.1066Z" fill="#2A338F"/>
</svg>
