<svg width="59" height="64" viewBox="0 0 59 64" fill="none" xmlns="http://www.w3.org/2000/svg">
<path fill-rule="evenodd" clip-rule="evenodd" d="M6.32527 54.1647C0.185484 43.7738 -3.44332 29.304 4.78989 19.8458C8.05308 15.8539 12.8357 13.4068 17.9822 13.0952C25.1981 13.0952 28.2217 15.8135 28.3108 15.8935L28.3123 15.8948C28.4662 16.0486 28.6494 16.1704 28.8509 16.2528C28.864 16.2528 28.8805 16.2528 28.8951 16.261C29.0789 16.3351 29.275 16.3746 29.4732 16.3776C29.6273 16.369 29.7795 16.338 29.9248 16.2857C29.9322 16.2835 29.9397 16.2817 29.9472 16.2802C29.9632 16.277 29.9796 16.275 29.9963 16.2728C30.0259 16.2691 30.0567 16.2652 30.0889 16.2545C30.2127 16.196 30.3285 16.1221 30.4338 16.0345C30.5007 15.9988 30.5648 15.9582 30.6258 15.9131C30.6537 15.8868 33.6652 13.0954 40.9707 13.0954C46.1176 13.4173 50.8983 15.8666 54.1663 19.8558C62.3947 29.3024 58.764 43.774 52.6261 54.1747C50.8688 57.515 48.2768 60.3435 45.1022 62.385C43.1338 63.4688 40.9186 64.0249 38.6718 63.9991H20.2644C18.0262 64.0162 15.8214 63.4588 13.8604 62.38C10.6815 60.3382 8.08522 57.5079 6.32527 54.1647ZM12.5648 29.9997C12.8501 30.2152 13.2149 30.3152 13.5784 30.2771C13.9419 30.239 14.2745 30.0663 14.503 29.7966C19.2736 24.1698 25.0724 26.1972 25.3286 26.2913C26.0367 26.5563 26.8382 26.23 27.1191 25.5619C27.3999 24.8944 27.0541 24.1382 26.3466 23.8732C21.1878 22.2697 15.5229 24.0066 12.3496 28.1657C12.1192 28.4354 12.0126 28.7802 12.053 29.125C12.0934 29.4691 12.2776 29.7841 12.5648 29.9997ZM14.4528 39.067C13.9019 39.6037 13.0087 39.6037 12.4578 39.067C11.9068 38.5304 11.9068 37.6604 12.4578 37.1237L12.4634 37.1184C12.6791 36.9156 16.0819 33.7159 19.7295 35.4912C20.1803 35.7108 20.4774 36.148 20.5078 36.6381C20.5381 37.1281 20.2979 37.5974 19.8768 37.868C19.4563 38.1391 18.9189 38.1706 18.4681 37.951C18.2007 37.8258 17.9108 37.7528 17.6143 37.7377C17.6556 37.8535 17.6802 37.9736 17.6879 38.0951C17.6879 38.8016 21.5696 40.8436 28.975 40.8436C36.381 40.8436 40.262 38.8016 40.262 38.0951C40.2678 37.9736 40.2898 37.8535 40.3285 37.7377C40.0347 37.7535 39.7466 37.8258 39.4818 37.951C38.7849 38.2901 37.9369 38.0145 37.5888 37.3351C37.24 36.6563 37.5236 35.8303 38.2205 35.4912C41.9077 33.6882 45.3514 36.986 45.4922 37.1237C46.0283 37.6622 46.0218 38.5197 45.478 39.0501C44.9348 39.581 44.0545 39.5898 43.5004 39.0696C43.3596 38.9431 43.2123 38.8242 43.0586 38.7122C42.8022 48.2759 36.5942 55.961 28.975 55.961C21.3564 55.961 15.1484 48.2778 14.8914 38.7122C14.6259 38.9091 14.4528 39.067 14.4528 39.067ZM30.8139 25.5568C30.9497 25.8774 31.2149 26.1336 31.5515 26.2695C31.8875 26.4059 32.2676 26.4101 32.6073 26.2814C32.6667 26.2581 38.6107 24.1028 43.4333 29.7966C43.7414 30.1595 44.2315 30.34 44.7183 30.2703C45.2058 30.2 45.6169 29.8895 45.7962 29.4563C45.9749 29.0231 45.896 28.5327 45.5879 28.1692C42.4128 24.0074 36.7447 22.2692 31.5837 23.8734C30.8809 24.1397 30.5374 24.8911 30.8139 25.5568Z" fill="#2A338F"/>
<path fill-rule="evenodd" clip-rule="evenodd" d="M46.0447 0C46.138 3.62573 44.8841 7.15755 42.5258 9.91311C42.0068 9.86212 41.4862 9.81132 40.9707 9.81132C37.7328 9.73665 34.5154 10.3436 31.5273 11.593C32.3278 8.05898 34.7072 2.58002 41.8344 0.655325" fill="#EF5FA2"/>
</svg>
