<svg width="82" height="95" viewBox="0 0 82 95" fill="none" xmlns="http://www.w3.org/2000/svg">
<path d="M40.9988 0L32.7979 4.72962L73.7686 28.397L73.7975 47.3396L81.9984 52.0692V23.6722L40.9988 0Z" fill="#0A0A12"/>
<path d="M40.9997 37.8842L32.7988 42.609V71.0109L40.9997 75.7357V47.3387L73.7984 66.2812L40.9997 85.2238L24.6027 75.7646V37.8842L40.9997 28.3961L65.5975 42.609V33.1546V33.1257L24.6027 9.48242L0 23.6954V71.0109L8.2009 75.7646V28.425L24.6027 18.9417L32.7988 23.6713L16.4018 33.1546V80.4942L40.9997 94.6782L81.9993 71.0109V61.5516L40.9997 37.8842Z" fill="#0A0A12"/>
<path d="M49.2002 61.5488V71.0098L57.3962 66.2793L49.2002 61.5488Z" fill="#0A0A12"/>
</svg>
