<svg width="180" height="102" viewBox="0 0 180 102" fill="none" xmlns="http://www.w3.org/2000/svg">
<path d="M73.632 100L65.856 78.112H21.504L13.728 100H0.336001L36.624 0.207997H51.024L87.168 100H73.632ZM25.248 67.744H62.112L43.68 16.192L25.248 67.744ZM158.075 82C163.355 76.624 165.995 69.472 165.995 60.544C165.995 51.616 163.355 44.464 158.075 39.088C152.891 33.712 146.603 31.024 139.211 31.024C131.915 31.024 125.627 33.616 120.347 38.8C115.163 43.984 112.57 51.04 112.57 59.968C112.57 68.896 115.211 76.144 120.491 81.712C125.771 87.28 132.059 90.064 139.355 90.064C146.651 90.064 152.891 87.376 158.075 82ZM136.907 101.296C126.155 101.296 117.179 97.456 109.979 89.776C102.779 82 99.1785 72.112 99.1785 60.112C99.1785 48.016 102.731 38.272 109.835 30.88C117.035 23.392 126.059 19.648 136.907 19.648C143.627 19.648 149.483 21.232 154.475 24.4C159.563 27.568 163.403 31.696 165.995 36.784V20.944H179.243V100H165.995V83.872C163.403 89.056 159.563 93.28 154.475 96.544C149.483 99.712 143.627 101.296 136.907 101.296Z" fill="#0A0A12"/>
</svg>
