<svg width="64" height="64" viewBox="0 0 64 64" fill="none" xmlns="http://www.w3.org/2000/svg">
<path d="M32.0018 5.01172C17.0957 5.01172 5.01367 17.0937 5.01367 32C5.01367 42.7402 11.3037 51.9863 20.3858 56.3301L21.2305 40.0077C21.2305 40.0077 19.6416 39.4863 19.2938 39.3165C15.9237 37.832 13.4754 33.461 13.4754 27.788C13.4754 21.5977 18.2763 16.2656 22.9177 16.2216C22.9236 16.2216 22.9236 16.2216 22.9275 16.2216C22.9295 16.2216 22.9334 16.2216 22.9352 16.2216C27.5777 16.2655 32.3787 21.5975 32.3787 27.788C32.3787 33.461 29.9274 37.8301 26.5642 39.3165C26.5378 39.3281 24.612 40.0274 24.612 40.0274L25.5554 58.1759C27.6256 58.6854 29.778 58.9844 32.0055 58.9844C35.0095 58.9844 37.8864 58.4727 40.5856 57.5683L41.4216 41.3946C39.2186 40.9101 37.3395 39.5076 36.1618 37.7481C34.7029 35.5626 37.2849 16.2198 37.2849 16.2198H38.9646V34.3711H40.6327V16.2218H42.4569V34.3751H44.1171V16.2218H46.0097V34.3751H47.6756V16.2218H48.9646C48.9646 16.2218 51.5467 35.5646 50.0859 37.7501C48.9198 39.4923 47.0584 40.8908 44.8828 41.3868C44.8438 41.4006 44.8085 41.4141 44.8085 41.4141L45.535 55.3264C53.5742 50.6524 58.9921 41.969 58.9921 32.0002C58.9881 17.0939 46.9061 5.01172 32.0018 5.01172Z" fill="#2A338F"/>
<path d="M17.426 25.044C17.5226 24.6505 17.6526 24.2765 17.6584 24.2698C17.7005 24.1223 17.6223 23.9719 17.4621 23.8762C17.3098 23.7942 17.1242 23.8362 17.0383 23.968C17.0383 23.968 16.8537 24.262 16.5861 24.6966C16.3684 25.0706 16.0462 25.6682 15.8263 26.4124C15.6358 27.0646 15.4084 27.9319 15.3059 28.9025C15.262 29.4123 15.2521 29.8723 15.2677 30.3458C15.3059 30.8858 15.3877 31.3477 15.5441 31.8761C16.0742 33.3829 16.4826 34.842 17.9561 36.2813C18.422 36.7599 18.9005 37.086 19.2462 37.3263L19.3682 37.4122C19.4425 37.4611 19.5138 37.5061 19.584 37.5471C19.8742 37.6994 20.0684 37.7541 20.1037 37.7618C20.2481 37.8008 20.3967 37.7305 20.458 37.6134C20.5157 37.4903 20.4736 37.336 20.3536 37.2385C20.3536 37.2385 20.1855 37.0921 19.9698 36.8186C19.8224 36.6525 19.6622 36.4123 19.4758 36.141C19.344 35.9495 19.1887 35.7327 19.0441 35.5217C18.3263 34.426 17.9124 32.8968 17.3401 31.3302C17.2278 30.9903 17.136 30.5499 17.1017 30.1759C17.056 29.7442 17.0344 29.3283 17.0344 28.9425C17.0178 28.046 17.0578 27.2764 17.136 26.6525C17.2257 25.9484 17.296 25.4201 17.426 25.044Z" fill="#2A338F"/>
<path d="M32.0019 0C14.3584 0 0 14.3554 0 31.9999C0 49.6406 14.3584 64 32.0019 64C49.6446 64 64.0002 49.6406 64.0002 31.9999C64 14.3554 49.6446 0 32.0019 0ZM32.0019 61.6133C15.6718 61.6133 2.3857 48.3282 2.3857 31.9999C2.3857 15.6698 15.6718 2.38369 32.0019 2.38369C48.3302 2.38369 61.6173 15.6698 61.6173 31.9999C61.6171 48.3282 48.33 61.6133 32.0019 61.6133Z" fill="#EF5FA2"/>
</svg>
