<svg width="68" height="54" viewBox="0 0 68 54" fill="none" xmlns="http://www.w3.org/2000/svg">
<path d="M43.3404 11.8716C43.4161 11.4092 43.4508 10.9698 43.4297 10.5635L46.347 8.57791C47.4806 8.01778 48.631 8.0937 49.2386 8.19728C49.2861 8.20608 50.9929 8.56056 51.936 7.91847C53.0972 7.12881 53.4022 5.54144 52.6085 4.38221C52.1564 3.71649 51.4495 3.34416 50.7076 3.28382C50.9238 2.57435 50.8376 1.7764 50.3876 1.11646C49.5981 -0.0493084 48.0108 -0.349738 46.8493 0.441685C46.2004 0.882901 45.8135 2.04213 45.6921 3.13222C45.638 3.54729 45.3632 4.97025 44.2193 6.00201L41.4207 7.90967C39.5786 7.40812 36.5781 7.77693 33.5703 8.64478C36.6495 9.22075 39.7199 10.2065 42.7305 11.591L43.3404 11.8716Z" fill="#2A338F"/>
<path d="M5.68609 38.6682H28.8888C28.2449 38.0809 27.6647 37.4225 27.1657 36.6894C24.9817 33.4789 24.6048 29.5992 26.1045 25.764C27.3975 22.4581 29.9661 19.4281 33.5317 17.0031C35.1028 15.9338 37.0069 14.9541 39.0471 14.124C36.3482 13.0744 33.4739 12.3191 30.4608 11.9926C28.3435 11.7623 26.2659 11.6416 24.2566 11.6416C11.358 11.6416 1.25684 16.685 1.25684 29.6797C1.25684 34.1092 3.47172 38.6682 5.68609 38.6682Z" fill="#2A338F"/>
<path d="M35.6551 20.1198C29.8004 24.1015 27.2008 30.0339 30.2851 34.5673C31.8823 36.9146 34.5195 38.054 37.5039 38.054C40.283 38.054 43.3632 37.0665 46.186 35.1468C51.2035 31.7297 56.2904 23.4569 56.0546 18.7008L59.5801 16.3047C60.6651 15.7674 61.933 15.6397 63.0731 15.8416C64.0936 16.0221 65.4808 16.0872 66.3366 15.5042C67.7379 14.5481 68.1035 12.6342 67.1519 11.2263C66.6023 10.4258 65.7461 9.97606 64.8508 9.90466C65.1103 9.04611 65.0109 8.08373 64.4636 7.28125C63.5053 5.87237 61.5883 5.51236 60.1855 6.46795C59.4026 6.99992 58.9352 8.40578 58.7864 9.72063C58.7235 10.2182 58.3904 11.9395 57.0085 13.192L53.6238 15.4954C52.9266 15.3038 52.0905 15.2148 51.1595 15.2148C46.5782 15.2151 39.6907 17.3732 35.6551 20.1198Z" fill="#2A338F"/>
<path d="M64.9171 34.0248L59.4141 32.9242C59.4118 32.9053 59.4101 32.8857 59.4078 32.8666C59.2668 31.6219 58.5696 29.8047 57.2324 27.7583C56.9086 28.3707 56.5938 28.918 56.3155 29.3779C54.0712 33.0873 51.1524 36.3259 48.3055 38.2648C48.2293 38.3166 48.1519 38.3648 48.0752 38.4159C53.7461 38.4159 58.5975 38.4159 64.4824 38.4159C65.7067 38.4159 66.6993 37.4233 66.6993 36.199C66.6993 35.1418 65.9534 34.232 64.9171 34.0248Z" fill="#2A338F"/>
<path d="M65.3002 42.6904H2.21706C1.45455 42.6904 0.745588 43.0824 0.339568 43.7282C-0.0659487 44.3738 -0.111202 45.1829 0.219648 45.8699L2.20122 49.9819C3.12715 51.9027 5.07102 53.1237 7.20318 53.1237H60.3136C62.4457 53.1237 64.3898 51.9027 65.3158 49.9819L67.2973 45.8699C67.6282 45.1831 67.5832 44.3741 67.1774 43.7282C66.7719 43.0821 66.0629 42.6904 65.3002 42.6904Z" fill="#EF5FA2"/>
</svg>
