<svg width="56" height="63" viewBox="0 0 56 63" fill="none" xmlns="http://www.w3.org/2000/svg">
<path d="M28.0004 2.94178e-07C20.8076 -0.00143511 14.6918 5.25022 13.6057 12.3602C12.5196 19.4703 16.7889 26.308 23.654 28.454C23.664 28.4535 23.6741 28.4535 23.6841 28.454C23.7114 28.454 23.7301 28.4765 23.7559 28.4832C26.5224 29.33 29.4784 29.33 32.2449 28.4832C32.2707 28.4765 32.2894 28.4597 32.3166 28.454C32.3267 28.4535 32.3367 28.4535 32.3468 28.454C39.2118 26.308 43.4812 19.4703 42.3951 12.3602C41.309 5.25022 35.1932 -0.00143511 28.0004 2.94178e-07ZM26.8803 3.3598C26.8803 2.74114 27.3817 2.23971 28.0004 2.23971C28.619 2.23971 29.1205 2.74114 29.1205 3.3598V4.47941C29.1205 5.09807 28.619 5.5995 28.0004 5.5995C27.3817 5.5995 26.8803 5.09807 26.8803 4.47941V3.3598ZM15.6818 14.5583C15.6818 13.9401 16.1832 13.4387 16.8014 13.4387H17.9215C18.5401 13.4387 19.0411 13.9401 19.0411 14.5583C19.0411 15.177 18.5401 15.6784 17.9215 15.6784H16.8014C16.1832 15.6784 15.6818 15.177 15.6818 14.5583ZM19.832 20.5679L18.8621 21.1277C18.3272 21.432 17.6464 21.2473 17.3387 20.7143C17.031 20.1813 17.211 19.4995 17.742 19.188L18.7119 18.6282C19.2473 18.3239 19.9277 18.5085 20.2353 19.0416C20.543 19.5751 20.3631 20.2564 19.832 20.5679ZM20.2406 10.0789C19.9315 10.6138 19.2473 10.7976 18.7119 10.489L17.742 9.92915C17.211 9.61767 17.031 8.93585 17.3387 8.40284C17.6464 7.86983 18.3272 7.68514 18.8621 7.98945L19.832 8.54925C20.3669 8.85882 20.5502 9.54351 20.2406 10.0789ZM21.9913 6.38993L21.431 5.42008C21.1267 4.88515 21.3114 4.20477 21.8449 3.89712C22.3779 3.58898 23.0593 3.76937 23.3707 4.30046L23.9305 5.27032C24.2392 5.80572 24.0559 6.48945 23.521 6.79902C23.3511 6.89806 23.1578 6.95022 22.9607 6.95022C22.5607 6.95022 22.1913 6.73634 21.9913 6.38993ZM31.3602 24.6377H24.6406C24.0224 24.6377 23.521 24.1363 23.521 23.5176C23.521 22.899 24.0224 22.3975 24.6406 22.3975H26.8803V8.9593C26.8803 8.34064 27.3817 7.83921 28.0004 7.83921C28.619 7.83921 29.1205 8.34064 29.1205 8.9593V22.3975H31.3602C31.9784 22.3975 32.4798 22.899 32.4798 23.5176C32.4798 24.1363 31.9784 24.6377 31.3602 24.6377ZM34.5697 5.42008L34.0099 6.38993C33.8095 6.73682 33.4391 6.95022 33.0386 6.95022C32.842 6.95069 32.6487 6.89854 32.4788 6.79902C31.9439 6.48945 31.7607 5.80572 32.0688 5.27032L32.6291 4.30046C32.8276 3.95118 33.198 3.73492 33.5999 3.73396C34.0018 3.733 34.3736 3.94783 34.5736 4.29616C34.7736 4.64448 34.7717 5.07367 34.5683 5.42008H34.5697ZM38.6683 20.7181C38.3592 21.2535 37.6745 21.4372 37.1386 21.1277L36.1688 20.5679C35.6377 20.2564 35.4578 19.5751 35.7654 19.0416C36.0731 18.5085 36.7535 18.3239 37.2889 18.6282L38.2587 19.188C38.7941 19.4975 38.9779 20.1822 38.6683 20.7181ZM40.319 14.5583C40.319 15.177 39.8176 15.6784 39.1994 15.6784H38.0793C37.4611 15.6784 36.9597 15.177 36.9597 14.5583C36.9597 13.9401 37.4611 13.4387 38.0793 13.4387H39.1994C39.8176 13.4387 40.319 13.9401 40.319 14.5583ZM38.6683 8.39901C38.9779 8.9349 38.7941 9.61958 38.2587 9.92915L37.2889 10.489C36.7535 10.7933 36.0731 10.6086 35.7654 10.0751C35.4578 9.54207 35.6377 8.86073 36.1688 8.54925L37.1386 7.98945C37.6745 7.67988 38.3592 7.86361 38.6683 8.39901Z" fill="#EE5FA2"/>
<path d="M47.1091 31.9759C48.2727 29.6501 47.8148 27.3429 45.7507 25.12C44.8474 24.1716 43.8211 23.3482 42.6991 22.6721C40.7373 26.2032 37.5737 28.9132 33.7838 30.3099C34.7699 36.7735 34.2886 43.3764 32.3747 49.629C31.2178 53.1007 31.0938 55.5002 32.0053 56.7648C33.0637 58.2342 35.7029 58.2342 38.0326 58.2342C39.3158 58.2342 40.111 58.0323 40.4637 57.616C41.233 56.7079 40.8388 53.8921 40.2866 50.5797C39.3909 45.2122 41.8268 41.1223 44.4048 36.7936C45.312 35.2706 46.2545 33.695 47.1091 31.9759Z" fill="#2A338F"/>
<path d="M8.89141 31.976C9.75121 33.6952 10.6885 35.2708 11.5957 36.7918C14.1718 41.12 16.6086 45.21 15.7139 50.5774C15.1617 53.8903 14.7675 56.7056 15.5368 57.6138C15.8895 58.0305 16.6847 58.2319 17.9679 58.2319C20.2976 58.2319 22.9368 58.2319 23.9952 56.7626C24.9067 55.4984 24.7794 53.0975 23.6258 49.6267C21.7124 43.3746 21.2306 36.7712 22.2167 30.3076C18.4253 28.91 15.2612 26.199 13.299 22.6665C11.4258 23.7933 6.54309 27.2785 8.89141 31.976Z" fill="#2A338F"/>
<path d="M50.8459 11.199H44.4621C45.1081 14.3549 44.8253 17.6305 43.6483 20.6296C45.0301 21.4363 46.2908 22.4348 47.3932 23.5951C50.12 26.531 50.7148 29.7755 49.1143 32.9774C48.2186 34.7692 47.2588 36.3817 46.3306 37.9396C43.7645 42.2486 41.7387 45.652 42.498 50.2103C43.2325 54.6156 43.5765 57.4089 42.1746 59.0639C41.0679 60.1199 39.5531 60.6352 38.032 60.4739C35.3072 60.4739 31.9172 60.4739 30.1928 58.0739C28.8177 56.1701 28.8388 53.172 30.2555 48.9213C32.0354 43.1075 32.5014 36.9707 31.6196 30.9549C29.2402 31.4908 26.7713 31.4908 24.3919 30.9549C23.5101 36.9707 23.9756 43.1075 25.756 48.9213C27.1723 53.1768 27.1938 56.1658 25.8187 58.0739C24.0804 60.4739 20.6928 60.4739 17.968 60.4739C16.4469 60.6357 14.9311 60.1199 13.8245 59.0639C12.4225 57.4089 12.7661 54.6156 13.501 50.2103C14.2603 45.652 12.234 42.2486 9.66848 37.9396C8.74026 36.3817 7.78141 34.7702 6.88476 32.9774C5.28429 29.7755 5.87663 26.531 8.60581 23.5951C9.7082 22.4348 10.969 21.4363 12.3508 20.6296C11.1742 17.6305 10.8914 14.3549 11.5379 11.199H5.15415C3.74602 11.2195 2.41923 11.8631 1.53167 12.9569C0.299138 14.4578 -0.226219 16.4167 0.090048 18.3324L6.22735 57.7524C6.46132 60.4285 8.61107 62.5347 11.2914 62.7136H44.7086C47.3899 62.5342 49.5396 60.427 49.7727 57.7505L55.91 18.3301C56.2262 16.4143 55.7009 14.4554 54.4683 12.9549C53.5803 11.8621 52.254 11.2191 50.8459 11.199Z" fill="#2A338F"/>
</svg>
